<svg viewBox="0 0 42 42" fill="none" xmlns="http://www.w3.org/2000/svg"><path stroke="#0266C1" d="M.5.5h41v41h-41z"/><path d="M20.75 25.3a7.96 7.96 0 0 0-4.43-5.37 8.44 8.44 0 0 0-3.5-.78 7.73 7.73 0 0 0 1.78 4.6 8.3 8.3 0 0 0 6.35 2.98 7.63 7.63 0 0 0-.2-1.44Zm0 0a7.89 7.89 0 0 0-3.29-4.72l.1-.5a7.9 7.9 0 0 1 3.44-4.8 7.9 7.9 0 0 1 3.54 5.3 7.89 7.89 0 0 0-3.29 4.71m-.5 0c.1.48.18.96.2 1.44a8.8 8.8 0 0 0 .1 0m.2-1.44a7.96 7.96 0 0 1 4.43-5.36 8.7 8.7 0 0 1 3.5-.78 7.73 7.73 0 0 1-1.78 4.6 8.3 8.3 0 0 1-6.34 2.98m.2-1.44c-.12.48-.18.96-.2 1.44" stroke="#0266C1" stroke-linecap="round" stroke-linejoin="round"/></svg>
