<svg viewBox="0 0 42 42" fill="none" xmlns="http://www.w3.org/2000/svg"><path stroke="#0266C1" d="M.5.5h41v41h-41z"/><path d="M28.95 23.65c.5-1.71.09-3.66-.36-5a12.22 12.22 0 0 0-.45-1.2c.22-.1.37-.33.37-.58v-2.6c0-.35-.26-.63-.58-.63h-7.14a.3.3 0 0 0-.3.3v.03c.1 1.87-.02 3.15-.39 4.04l-.02.03v.05c-.14.33-.33.63-.56.88l-.03.02v.03c-.34.35-.73.63-1.16.84-.75.36-1.52.66-2.3.92l-.15.05c-2.71.97-3.07 2.73-3.06 3.61v2.27c0 .11.05.21.14.27.66.43 1.38.77 2.13 1a.3.3 0 0 0 .36-.22l.01-.1v-.07h.43v.31c0 .16.1.29.24.31.26.05.5.08.76.1.08.01.16-.02.22-.08s.1-.14.09-.23v-.4h.43v.45c0 .17.13.31.29.31.24 0 .49 0 .75-.03.15-.02.26-.15.26-.32v-.4h.43v.27c0 .17.13.32.29.32h.05a9.27 9.27 0 0 0 1.57-.4l.05-.03c2.03-1.25 3.32-.22 3.37-.18.05.04.12.07.18.07h.36c.16 0 .3-.14.3-.32v-.52h.4v.52c0 .17.14.31.3.31h.93c.16 0 .3-.14.3-.31v-.52h.42v.52c0 .17.13.31.3.31h.71c.16 0 .3-.14.3-.31v-3.37a.3.3 0 0 0-.24-.32Zm-6.9-9.38h5.86v2.59h-5.86v-2.6Zm-3.65 6.23v.02c.24.21.46.44.66.7a.64.64 0 0 0-.08.3c0 .34.25.6.56.6.3.01.55-.26.55-.59 0-.3-.21-.57-.5-.6-.19-.26-.4-.51-.63-.74.26-.15.5-.34.73-.55.28.28.55.59.79.91-.1.32.05.66.34.77.29.1.6-.06.7-.37.1-.31-.05-.65-.34-.76a.52.52 0 0 0-.18-.04h-.07a8.94 8.94 0 0 0-.83-.97c.14-.18.26-.38.36-.59.45.26.89.54 1.3.85 0 .33.25.6.56.6.3.01.56-.26.57-.6 0-.32-.25-.6-.56-.6a.53.53 0 0 0-.25.06c-.44-.32-.9-.6-1.37-.87.31-.9.45-2.1.39-3.75h.38v2.59c0 .35.26.63.58.63h5.44c.08.16.2.45.34.82h-.11c-1.77.02-3.19 1.57-3.18 3.47.01 1.08.49 2.1 1.3 2.74-2.36.66-5.9 1.45-8.87 1.25.55-2.36-.1-3.82-.53-4.46.66-.23 1.32-.5 1.95-.82Zm-2.54 1c.32.4 1.14 1.73.54 4.19a6.92 6.92 0 0 1-2.99-.97 2.13 2.13 0 0 1-.02-.22v-.02c-.02-.66.21-2.1 2.47-2.98Zm12.6 5.53v-.53c0-.17-.13-.31-.29-.31h-1a.3.3 0 0 0-.3.31v.53h-.35v-.53a.3.3 0 0 0-.3-.31h-1c-.16 0-.29.14-.29.31v.51c-.4-.26-1.84-1.04-3.88.2-.37.13-.74.23-1.12.3v-.2c0-.18-.13-.32-.29-.32h-1c-.16 0-.29.14-.29.31v.43h-.15v-.44a.3.3 0 0 0-.29-.3h-1a.3.3 0 0 0-.3.3v.38l-.14-.03v-.35a.3.3 0 0 0-.3-.3h-1c-.15-.01-.28.1-.3.27a7.56 7.56 0 0 1-1.48-.72v-1.12c1.27.72 2.9 1 4.65 1 4.63 0 9.93-1.91 10.56-2.14v2.75h-.14Zm-.14-3.3c-.25.08-.85.3-1.7.55a2.91 2.91 0 0 1-1.2-3.76 2.6 2.6 0 0 1 2.65-1.57c.43 1.34.81 3.23.25 4.78Z" fill="#0266C1"/><path d="M23.17 14.65c-.46 0-.84.4-.84.9s.38.91.84.92c.47 0 .85-.41.85-.91s-.38-.91-.85-.91Zm0 1.2c-.14 0-.26-.14-.26-.3 0-.15.12-.28.26-.28.15 0 .27.13.27.29 0 .15-.12.28-.27.28Z" fill="#0266C1"/></svg>