<svg viewBox="0 0 42 42" fill="none" xmlns="http://www.w3.org/2000/svg"><path stroke="#0266C1" d="M.5.5h41v41h-41z"/><g clip-path="url(#a)"><path d="M26.84 19.17h-4.38a2.5 2.5 0 0 0-2.48 2.5 2.5 2.5 0 0 0 2.48 2.5h1.9a2.5 2.5 0 0 1 2.48 2.51 2.5 2.5 0 0 1-2.48 2.5h-9.2m2.33-4.15c0-1.3-1.04-2.35-2.33-2.35a2.35 2.35 0 0 0-2.34 2.35v.1c0 .5.16 1.01.46 1.43l1.87 2.59h.01l1.87-2.59c.3-.42.46-.92.46-1.44v-.09Zm-1.88-.97.01.01a1.03 1.03 0 0 1 .36 1.59c-.2.24-.5.39-.81.39h-.03a1.04 1.04 0 0 1-.45-1.98h.01c.29-.14.62-.14.9 0Zm13.57-8.87c0-1.3-1.04-2.37-2.34-2.37a2.36 2.36 0 0 0-2.33 2.37c0 .51.16 1.01.46 1.42l1.87 2.53s0 0 0 0l1.88-2.53c.3-.4.46-.9.46-1.42Zm-1.89-1.02.03.01a1 1 0 0 1 .35 1.55h-.01c-.2.24-.48.38-.79.38h-.05c-.3 0-.6-.14-.79-.37v-.01a1 1 0 0 1 .34-1.55l.03-.01c.28-.13.6-.13.89 0Z" stroke="#0266C1" stroke-linecap="round"/></g><defs><clipPath id="a"><path fill="#fff" transform="translate(12 12)" d="M0 0h18v18h-18z"/></clipPath></defs></svg>
